<svg version="1" xmlns="http://www.w3.org/2000/svg" width="320" height="320" viewBox="0 0 240.000000 240.000000"><path d="M147.4 66.3c-3.3 2.9-3.9 7.2-1.4 10.8 4.4 6.1 13.6 3.2 14.5-4.6.3-2.2-2.7-6.6-5.1-7.5-3.7-1.5-5-1.2-8 1.3zM122.9 72.8c-7.9 4-5.1 16.2 3.7 16.2 3.5 0 7.9-3 8.9-6 .9-3-1.2-8.5-3.8-9.8-4.2-2-5.5-2-8.8-.4zM165.8 81.4c-3 2.2-4 6.3-2.3 9.5 3.6 7 13.5 4.3 13.5-3.6 0-5.2-7.2-9-11.2-5.9zM80.5 99.6c-7 1.6-8.1 2.2-9.3 4.9-.9 1.9-.7 2.6.8 4 3.1 2.8 10.5 4.4 18.7 4.1 11.2-.5 16.2-1.8 13.5-3.5-.7-.4-3.5 0-6.2.9-8.4 2.8-19.7 1.2-22.4-3.3-2.9-4.8 10.8-8.2 21.7-5.5 3.1.8 6.2 1.1 6.8.7 3.6-2.2-15.8-4.1-23.6-2.3zM109.4 99.7c.4.5 3.5.8 6.9.8h6.2v6c0 5.8.1 6 2.6 6 2.5.1 2.5-.1 2.1-5.3-.6-6.5.1-7.1 7.4-6.6 3 .1 5.6-.1 5.9-.7.4-.5-5.8-.9-15.6-.9-8.9 0-15.9.3-15.5.7zM145.5 105.5c0 3.6.3 6.6.8 6.6.4.1 3 .3 5.7.4 7.8.4 8 .4 7.8 1.6-.2.6.8 1.9 2.2 3 3 2.3 7.7 1.4 9.4-1.7.6-1 1.4-2.1 1.8-2.4 1.3-1-3.3-6.8-5.8-7.4-3-.8-7.4 1.6-7.4 3.9 0 1.1-1.3 1.5-5.1 1.5h-5.1l.4-6c.3-5.8.2-6-2.2-6-2.4 0-2.5.2-2.5 6.5zM72.2 122.5c-.1 6.3-.1 6.5 2.3 6.5 1.4 0 2.5-.4 2.5-1 0-.5-.7-.7-1.6-.3-1.4.5-1.5-.3-1.2-5.6.2-3.9-.1-6.1-.8-6.1-.6 0-1.1 2.7-1.2 6.5zM81 118.3c0 1.3-.3 2.7-.7 3.1-1.6 1.5-1 3.6.9 3.6 1.5 0 1.9.5 1.5 2-.3 1.3 0 2 1 2 1.1 0 1.4-.7 1-2.3-.3-1.2-.9-3.9-1.2-6-.8-4.3-2.5-6-2.5-2.4zm1 3.7c0 .5-.5 1-1.1 1-.5 0-.7-.5-.4-1 .3-.6.8-1 1.1-1 .2 0 .4.4.4 1zM90.9 116.2c-.1.2-.2 3.1-.4 6.6l-.2 6.2 4.6-.2c2.5-.1 4-.3 3.3-.6-.6-.2-1.2-1.2-1.2-2.2 0-1-.5-2.2-1-2.5-.6-.4-.7-1.3-.1-2.3 1.2-2.3-.4-5.2-2.9-5.2-1.1 0-2.1.1-2.1.2zm3.3 2c.6 1.6-.1 3.8-1.2 3.8-.4 0-.7-1.1-.7-2.5 0-2.6 1.2-3.4 1.9-1.3zm.5 8.2c-1 2.4-2.7 1.9-2.3-.7.3-1.2.5-2.4.5-2.7.1-.2.6.1 1.2.7.7.7.9 1.9.6 2.7zM99.9 116.7c-.1.7-.2 1.9-.3 2.5-.1.7.2 1.9.7 2.5.7.9.5 1.3-.7 1.3-.9 0-1.6.4-1.6 1 0 .5.5.9 1.2.7.7-.1 1.7.8 2.3 2 .5 1.3 1.5 2.3 2.1 2.3.8 0 .7-1.4-.3-4.8-2-6.4-3.1-9-3.4-7.5zM105.8 123.1c.4 7 1.7 8.3 2.5 2.4l.4-3 .8 3.2c.4 1.8 1.4 3.3 2.1 3.3 1.1 0 1.1-.6.3-2.7-.5-1.5-.8-3.7-.5-4.9.7-2.5-1.6-5.4-4.2-5.4-1.5 0-1.7 1-1.4 7.1zm3.6-4.4c.4.9.3 2-.2 2.5-.6.6-1.1-.1-1.4-1.6-.6-2.9.6-3.5 1.6-.9zM114 122.7c0 4.6.4 6.3 1.3 6.3s1.2-1 1-3.3c-.3-2.4-.2-2.9.6-1.7.6.8 1.1 2.3 1.1 3.2 0 1 .7 1.8 1.6 1.8 1.2 0 1.4-.5.8-1.8-.4-.9-.8-3.3-.8-5.2-.1-4.4-1.1-5.9-3.6-5.7-1.8.1-2 .9-2 6.4zm4-3.2c0 .8-.4 1.7-1 2-.6.4-1-.5-1-2s.4-2.4 1-2c.6.3 1 1.2 1 2zM122.8 116.7c-.7 3.3-.2 12.3.7 12.3.7 0 1.1-2.5 1.1-6.5-.1-3.6-.4-6.5-.8-6.5-.5 0-.9.3-1 .7zM126.9 118.2c-1.5 2.8-1.4 7.5.2 9.4 1.4 1.7 4.9 1.9 4.9.3 0-.6-.7-.9-1.5-.5-2.7 1-3.7-7.2-1.3-10.2.7-.8.7-1.2 0-1.2-.6 0-1.7 1-2.3 2.2zM131.7 116.7c-.4.3-.7 1.1-.7 1.7 0 .6.5.5 1.2-.2.6-.6.9-1.4.7-1.7-.3-.3-.9-.2-1.2.2zM135.8 118.5c-.3 1.4-.1 2.5.3 2.5.5 0 .9.4.9 1 0 .5-.6 1-1.3 1-.8 0-1.4.7-1.4 1.5 0 1.1.4 1.2 1.3.4 1-.8 1.5-.5 2 1.5.3 1.4 1.3 2.6 2 2.6 1.1 0 1.2-.5.6-1.8-.6-.9-1.3-3.6-1.7-5.9-.8-5-2.1-6.3-2.7-2.8zM142.1 122.6c0 6.1.1 6.4 2.4 6.4 1.4 0 2.4.3 2.4.7-.5 3.2.4 5.5 2.5 6.4 7.9 3.6 12.5-6.4 4.9-10.5-2.4-1.3-1.9-2.2 1-1.7.5.1.6-.3.2-.9-.3-.6-1-.8-1.5-.5-1.3.8-1.8-1.7-.9-4.3.8-1.9.6-2.3-.8-2-1.4.3-1.7 1.2-1.5 4.5.2 2.2 0 4.3-.5 4.6-.4.3-.8-1-.9-2.9-.1-4-1.3-5.6-4.7-5.9-2.5-.3-2.5-.1-2.6 6.1zm5-3.2c0 .6.2 2.2.5 3.5.4 2.3-1 5.1-2.7 5.1-.5 0-.9-2.5-.9-5.5 0-4.4.3-5.3 1.5-4.9.8.4 1.5 1.1 1.6 1.8zM172.9 118.7c-.4 4.4-.3 10.3.2 10.3.4 0 .7-2.5.8-5.5 0-3-.1-5.5-.4-5.5-.3 0-.5.3-.6.7zM179 121c0 1.6.4 3 .8 3 .5 0 .7-1.4.4-3-.2-1.7-.6-3-.8-3-.2 0-.4 1.3-.4 3zM175.7 124.1c.4 1.3.8 1.8 1.1 1 .2-.7-.1-1.8-.6-2.3-.8-.8-.9-.4-.5 1.3zM163 125c0 1.1.4 2 .8 2s.8-.9.9-2c.1-1.1-.2-2-.8-2-.5 0-.9.9-.9 2zM166.4 123.9c.4.6 1.6 1.6 2.8 2.2 1.5.8 1.8.8 1.4 0-.4-.6-1.6-1.6-2.8-2.2-1.5-.8-1.8-.8-1.4 0zM160.7 126.5c-.4.8-.3 1.6.1 1.9.4.3.9-.4.9-1.5.2-2.3-.3-2.5-1-.4zM179 126.8c0 1.2.4 2.2.9 2.2 1 0 .9-2.6-.2-3.6-.4-.4-.7.2-.7 1.4zM78.7 126.7c-1 .9-.9 2.3.1 2.3.5 0 .9-.7.9-1.5 0-1.7-.1-1.8-1-.8zM133 128c0 .5.5 1 1 1 .6 0 1-.5 1-1 0-.6-.4-1-1-1-.5 0-1 .4-1 1zM79.5 132.9c-.3.5.2 1.7 1.1 2.6 1.9 1.9 4 .6 3.1-1.9-.7-1.7-3.2-2.1-4.2-.7zM132.5 143c-3.3 3.7.3 9.6 5.2 8.4 2.7-.7 4.6-4.9 3.3-7.3-1.8-3.5-5.8-4-8.5-1.1zM79.4 147.5c-.9 2.3.3 4.5 2.5 4.5 2.3 0 3.5-2.8 2-4.6-1.5-1.8-3.8-1.8-4.5.1zM113.5 154.6c-.9.9-1.4 2.3-1.1 3.1.3.8.6 1.8.6 2.3 0 1.5 3.8 2.2 6 1 1.1-.6 2-2.1 2-3.3 0-4.4-4.4-6.2-7.5-3.1zM92.6 158.6c-.9 2.4 1.2 5.6 3.6 5.2 3-.4 4.5-3.2 2.9-5.2-1.7-2.1-5.7-2.1-6.5 0z"/></svg>